<svg width="54" height="32" fill="none" xmlns="http://www.w3.org/2000/svg"><g clip-path="url(#clip0_10_365)"><path d="M53.057 19.808H48.27V32h-2.662V19.808H40.84v-2.273h12.216v2.273zM32.704 17.32v14.465h-2.642V19.593h-5.695l-.123 3.616c-.07 2.025-.234 3.672-.496 4.939-.261 1.253-.68 2.21-1.259 2.872-.577.648-1.375.971-2.393.971-.358 0-.846-.069-1.465-.206l.186-2.335c.178.055.385.082.619.082.839 0 1.43-.496 1.774-1.488.358-1.005.578-2.582.66-4.732l.207-5.992h10.627zM9.529 24.478c.921.248 1.623.675 2.104 1.281.482.593.722 1.337.722 2.232 0 1.268-.467 2.253-1.403 2.955C10.017 31.65 8.662 32 6.887 32H.037V17.535h6.458c1.623 0 2.89.324 3.797.972.908.647 1.362 1.563 1.362 2.748 0 .758-.186 1.412-.557 1.963-.358.55-.88.971-1.568 1.26zm-6.851-.764h3.59c.867 0 1.527-.172 1.981-.517.454-.344.681-.854.681-1.529 0-.675-.227-1.185-.68-1.529-.455-.358-1.115-.537-1.982-.537h-3.59v4.112zm4.127 6.22c1.898 0 2.847-.717 2.847-2.15 0-1.404-.949-2.107-2.847-2.107H2.678v4.257h4.127z" fill="#fff"/><path d="M6.198 12.413a6.202 6.202 0 006.197-6.207A6.202 6.202 0 006.198 0 6.202 6.202 0 000 6.206a6.202 6.202 0 006.198 6.207z" fill="#FF5C5C"/><path d="M26.546 12.413a6.202 6.202 0 006.197-6.207A6.202 6.202 0 0026.546 0a6.202 6.202 0 00-6.198 6.206 6.202 6.202 0 006.198 6.207z" fill="#A8A8A8"/><path d="M46.893 12.413a6.202 6.202 0 006.198-6.207A6.202 6.202 0 0046.893 0a6.202 6.202 0 00-6.197 6.206 6.202 6.202 0 006.197 6.207z" fill="#FFBD4A"/></g><defs><clipPath id="clip0_10_365"><path fill="#fff" d="M0 0h53.091v32H0z"/></clipPath></defs></svg>