<svg width="40" height="40" fill="none" xmlns="http://www.w3.org/2000/svg"><path d="M6.667 15H15c0-1.834-1.5-3.334-3.333-3.334h-5c-.917 0-1.667.75-1.667 1.667S5.75 15 6.667 15z" fill="#fff"/><path d="M36.666 23.433v-10.1c0-1.833-1.5-3.333-3.333-3.333H22.85l-1.767-1.767 2.35-2.35L22.25 4.7l-5.884 5.883 1.184 1.184 2.35-2.35 1.767 1.766V15c0 1.833-1.5 3.333-3.334 3.333h-3.4c-.367-.266-.75-.5-1.15-.716l-.666 1.483-.767-.35.667-1.5A8.17 8.17 0 0010 16.667c-.883 0-1.733.183-2.534.433l.567 1.517-.783.3-.583-1.55a8.2 8.2 0 00-4.05 3.85l1.483.666-.35.767-1.5-.667A8.17 8.17 0 001.667 25c0 .883.183 1.733.433 2.533l1.516-.566.3.783-1.55.583a8.2 8.2 0 003.85 4.05l.667-1.483.767.35-.667 1.5c.917.367 1.95.583 3.017.583.883 0 1.733-.183 2.533-.433l-.566-1.517.783-.3.583 1.55a8.2 8.2 0 004.05-3.85l-1.483-.666.35-.767 1.5.667c.166-.434.3-.9.4-1.367h8.6c-.034.283-.084.567-.084.85a5.84 5.84 0 005.834 5.833 5.84 5.84 0 005.833-5.833 5.774 5.774 0 00-1.666-4.067zM10 30c-2.767 0-5-2.233-5-5s2.233-5 5-5 5 2.233 5 5-2.233 5-5 5zm8.116-6.667c-.066-.3-.133-.583-.216-.866l-1.517.566-.3-.783 1.55-.583h.7A6.665 6.665 0 0025 15v-1.667h8.333v8.417c-.267-.033-.55-.083-.833-.083a5.774 5.774 0 00-4.067 1.666H18.116zM32.5 30a2.497 2.497 0 01-2.5-2.5c0-1.383 1.116-2.5 2.5-2.5 1.383 0 2.5 1.117 2.5 2.5S33.883 30 32.5 30z" fill="#fff"/></svg>