<svg width="40" height="40" fill="none" xmlns="http://www.w3.org/2000/svg"><path d="M28.333 8.333H5a3.332 3.332 0 00-3.333 3.334v15H5c0 2.766 2.233 5 5 5s5-2.234 5-5h10c0 2.766 2.233 5 5 5s5-2.234 5-5h3.333v-8.334l-10-10zM25 11.667h1.666l5 5H25v-5zm-10 0h6.666v5H15v-5zm-10 0h6.666v5H5v-5zm5 17.083a2.084 2.084 0 110-4.168 2.084 2.084 0 010 4.168zm20 0a2.084 2.084 0 110-4.168 2.084 2.084 0 010 4.168zm5-5.417h-1.3a4.976 4.976 0 00-3.7-1.666c-1.467 0-2.784.65-3.7 1.666H13.7c-.917-1.016-2.217-1.666-3.7-1.666s-2.784.65-3.7 1.666H5V20h30v3.333z" fill="#fff"/></svg>