<svg width="40" height="40" fill="none" xmlns="http://www.w3.org/2000/svg"><path d="M31.533 8.35a2.49 2.49 0 00-2.366-1.683H10.833c-1.1 0-2.016.7-2.366 1.683L5 18.333v13.334c0 .916.75 1.666 1.667 1.666h1.666c.917 0 1.667-.75 1.667-1.666V30h20v1.667c0 .916.75 1.666 1.667 1.666h1.666c.917 0 1.667-.75 1.667-1.666V18.333L31.533 8.35zM11.417 10h17.15l1.733 5H9.683l1.734-5zm20.25 16.667H8.333V18.9l.2-.567h22.95l.184.567v7.767z" fill="#fff"/><path d="M12.5 25a2.5 2.5 0 100-5 2.5 2.5 0 000 5zm15 0a2.5 2.5 0 100-5 2.5 2.5 0 000 5z" fill="#fff"/></svg>