<svg width="40" height="40" fill="none" xmlns="http://www.w3.org/2000/svg"><path d="M23.617 22.85l2.333-4.033a.589.589 0 00-.133-.75l-2.467-1.934c.05-.366.083-.75.083-1.133s-.033-.767-.083-1.15l2.467-1.933a.589.589 0 00.133-.75l-2.333-4.034a.59.59 0 00-.717-.25L20 8.05a8.57 8.57 0 00-1.966-1.15L17.6 3.817a.606.606 0 00-.583-.484H12.35a.605.605 0 00-.583.5l-.433 3.084c-.7.3-1.367.683-1.967 1.15L6.467 6.9a.59.59 0 00-.717.25l-2.333 4.033a.589.589 0 00.133.75l2.467 1.934c-.05.366-.083.75-.083 1.133s.033.767.083 1.15L3.55 18.083a.589.589 0 00-.133.75l2.333 4.034c.15.25.45.35.717.25l2.9-1.167c.6.467 1.25.85 1.966 1.15l.434 3.083c.05.267.3.484.583.484h4.667a.605.605 0 00.583-.5l.433-3.084c.7-.3 1.367-.683 1.967-1.15l2.9 1.167c.267.1.567 0 .717-.25zm-8.934-4.517A3.343 3.343 0 0111.35 15c0-1.833 1.5-3.333 3.334-3.333 1.833 0 3.333 1.5 3.333 3.333 0 1.833-1.5 3.333-3.333 3.333zm21.851 12.784l-1.6-1.234c.033-.233.066-.483.066-.733s-.016-.5-.066-.733l1.583-1.234a.381.381 0 00.083-.483l-1.5-2.583c-.083-.167-.283-.217-.466-.167l-1.85.75c-.384-.3-.8-.55-1.267-.733L31.234 22a.36.36 0 00-.35-.333H27.9c-.183 0-.35.133-.366.316l-.284 1.967c-.45.2-.883.433-1.266.733l-1.85-.75a.383.383 0 00-.467.167l-1.5 2.583c-.083.167-.067.367.083.484l1.584 1.233c-.034.233-.05.483-.05.733s.016.5.05.734L22.25 31.1a.38.38 0 00-.083.483l1.5 2.584c.083.166.283.216.467.166l1.85-.75c.383.3.8.55 1.266.734l.284 1.966a.375.375 0 00.366.317h2.984c.183 0 .35-.133.366-.317l.284-1.966c.45-.2.883-.434 1.25-.734l1.866.75c.167.067.367 0 .467-.166l1.5-2.584c.1-.15.05-.35-.083-.466zm-7.15.266c-1.234 0-2.25-1-2.25-2.25s1-2.25 2.25-2.25 2.25 1 2.25 2.25-1.017 2.25-2.25 2.25z" fill="#fff"/></svg>