<svg width="40" height="40" fill="none" xmlns="http://www.w3.org/2000/svg"><g clip-path="url(#clip0_10_214)"><path d="M37.174 27.277c-.189-.076-.72-.405-.87-.749-.36-.823-.59-1.463.43-3.65a414.78 414.78 0 001.053-2.275l.184-.411.277.658c.153.362.608 1.351 1.012 2.2.898 1.885.805 2.851.616 3.251-.472 1.002-1.627 1.41-2.702.976zm-29.82-.263l-.018-5.767c-.079-.293-.15-.3-3.57-1.468-.353-.12-3.054-1.141-3.144-1.202-.517-.35-.621-.534-.621-.934 0-.37 1.33-3.605 1.74-4.236.172-.263.424-.5.795-.37.337.117 6.044 2.145 6.674 2.381.219.082.337.518.365.803l.05.517h3.784v-.987l-1.176-.082c-1.33-.093-1.867-.424-1.867-1.149 0-.246.167-.596.38-.797.367-.344.513-.357 3.92-.357 3.486 0 3.544.005 3.897.38.196.21.357.568.357.797 0 .702-.55 1.034-1.867 1.126l-1.176.082v.987l1.925.046 1.926.047.919.84.919.84c.187-.043 14.043-3.568 14.188-3.604.02.004.933.838 1.55 1.453.819.813 1.29 1.516.7 2.105-.562.562-1.226.427-2.15-.437l-.82-.767-1.428.397-1.428.398c-.204.188-7.587 8.563-7.998 8.964h-8.023l-8.803-.006zm18.217-4.86l2.652-3.044-3.791 1-3.396.823-2.233-1.814-9.282-.017-.01 5.631 7.006-.016h6.82l2.234-2.562zM7.268 18.178c.038-.159.028-.5-.022-.76-.082-.43-.245-.53-1.817-1.109-.95-.35-1.848-.637-1.996-.638-.287-.002-.737.842-.601 1.173.105.256 3.713 1.591 4.181 1.613.103.005.218-.12.255-.28z" fill="#fff"/></g><defs><clipPath id="clip0_10_214"><path fill="#fff" d="M0 0h40v40H0z"/></clipPath></defs></svg>