<svg width="40" height="40" fill="none" xmlns="http://www.w3.org/2000/svg"><path d="M16.666 21.667c.917 0 1.667.75 1.667 1.666 0 .917-.75 1.667-1.666 1.667C15.75 25 15 24.25 15 23.333c0-.916.75-1.666 1.666-1.666zm0-3.334c-2.766 0-5 2.234-5 5 0 2.767 2.234 5 5 5 2.767 0 5-2.233 5-5 0-2.766-2.233-5-5-5zM30.834 15l1.817-4.017 4.017-1.816L32.65 7.35l-1.817-4.017-1.816 4.017L25 9.167l4.017 1.816L30.832 15zm4.634 6.2l-1.3-2.867-1.3 2.867L30 22.5l2.867 1.3 1.3 2.867 1.3-2.867 2.866-1.3-2.866-1.3zm-8.384 2.133c0-.2 0-.416-.016-.616l3.233-2.45-4.167-7.217-3.733 1.567A10.91 10.91 0 0021.334 14l-.5-4H12.5l-.5 4.017c-.367.183-.717.4-1.067.616L7.2 13.05l-4.167 7.217 3.234 2.45c-.017.2-.017.416-.017.616s0 .417.017.617L3.033 26.4 7.2 33.617l3.733-1.567c.334.217.7.433 1.067.617l.5 4h8.333l.5-4.017a9.807 9.807 0 001.067-.617l3.733 1.567 4.167-7.217-3.233-2.45c.016-.183.016-.4.016-.6zM24.717 29.4l-2.884-1.217a7.011 7.011 0 01-3.55 2.05l-.4 3.1H15.45l-.383-3.1a7.011 7.011 0 01-3.55-2.05L8.633 29.4l-1.216-2.117L9.9 25.4a6.93 6.93 0 01-.3-2.05c0-.717.1-1.4.3-2.05l-2.483-1.883L8.633 17.3l2.884 1.217a7.011 7.011 0 013.55-2.05l.383-3.134h2.45l.383 3.1a7.01 7.01 0 013.55 2.05l2.884-1.216 1.216 2.116-2.483 1.884c.2.65.3 1.333.3 2.05 0 .716-.1 1.4-.3 2.05l2.483 1.883-1.216 2.15z" fill="#fff"/></svg>