<svg width="40" height="37" fill="none" xmlns="http://www.w3.org/2000/svg"><path d="M21.33 12.087V9.243l-3.668-.815a7.3 7.3 0 00-.47-1.126l2.02-3.173L17.2 2.118l-3.173 2.02a7.305 7.305 0 00-1.126-.471L12.087 0H9.243l-.815 3.667a7.3 7.3 0 00-1.126.47L4.13 2.118 2.118 4.13l2.019 3.174c-.186.36-.345.735-.47 1.126L0 9.243v2.844l3.667.815a7.3 7.3 0 00.47 1.125l-2.019 3.174 2.012 2.01 3.173-2.018c.36.185.735.345 1.126.47l.814 3.667h2.844l.815-3.668a7.3 7.3 0 001.126-.47l3.173 2.02 2.011-2.012-2.02-3.173c.187-.36.346-.735.471-1.126l3.667-.814zM10.665 14.22a3.555 3.555 0 110-7.11 3.555 3.555 0 010 7.11zm15.25 18.534l.896-2.189-2.567-1.783a6.02 6.02 0 00-.007-1.014l2.555-1.807-.915-2.182-3.079.555a6.092 6.092 0 00-.718-.717l.529-3.08-2.19-.896-1.782 2.567a6.089 6.089 0 00-1.015.007l-1.806-2.555-2.182.915.555 3.079a6.108 6.108 0 00-.717.718l-3.08-.529-.896 2.19 2.566 1.782c-.027.34-.022.68.007 1.015l-2.554 1.806.914 2.182 3.08-.555c.218.256.456.498.717.717l-.528 3.08 2.189.896 1.783-2.566c.34.027.68.022 1.014-.007l1.807 2.554 2.182-.914-.555-3.08c.256-.217.497-.456.717-.718l3.08.529zm-8.883-1.72a2.957 2.957 0 112.242-5.473 2.957 2.957 0 01-2.242 5.474zM40 10.093l-.754-2.326-3.215.307a6.28 6.28 0 00-.683-.796l.81-3.13-2.179-1.111-2.06 2.492a6.236 6.236 0 00-1.044-.086l-1.64-2.782-2.325.754.306 3.215c-.286.206-.55.436-.796.683l-3.13-.81-1.11 2.178 2.492 2.06a6.233 6.233 0 00-.086 1.045l-2.782 1.639.754 2.325 3.215-.306c.206.287.436.55.683.796l-.81 3.13 2.178 1.11 2.06-2.492c.343.057.692.088 1.045.086l1.64 2.783 2.325-.755-.307-3.214a6.29 6.29 0 00.796-.684l3.13.81 1.111-2.178-2.492-2.06a6.37 6.37 0 00.086-1.045L40 10.092zm-8.155 4.572a3.056 3.056 0 11-1.886-5.813 3.056 3.056 0 011.886 5.813z" fill="#fff"/></svg>