<svg width="40" height="40" fill="none" xmlns="http://www.w3.org/2000/svg"><path fill-rule="evenodd" clip-rule="evenodd" d="M20 4c8.836 0 16 7.164 16 16s-7.164 16-16 16S4 28.836 4 20 11.164 4 20 4zm-.07 16.042a.827.827 0 110 1.656.827.827 0 110-1.656zm.008-2.167a2.987 2.987 0 110 5.974 2.987 2.987 0 010-5.974zm-12.09-2.268c1.159-3.206 3.52-5.912 6.484-7.294 4.07-1.899 9.013-2.019 13.2 1.08 2.47 1.826 3.37 3.323 4.602 5.977.933 2.351.167 3.117-2.83 1.797-6.196-3.065-12.459-2.927-18.782 0-2.333 1.523-3.643.252-2.674-1.56zm15.917 16.791c4.328-1.362 6.854-4.117 8.403-7.63 1.008-2.716-2.15-3.638-3.26-1.849-.664 1.318-1.456 2.448-2.487 3.326-1.615 1.372-3.953 1.622-4.318 4.208-.19 1.344.117 2.552 1.662 1.945zm-7.459 0c-4.328-1.362-6.854-4.117-8.403-7.63-1.008-2.716 2.15-3.638 3.26-1.849.664 1.318 1.456 2.448 2.487 3.326 1.615 1.372 3.953 1.622 4.318 4.208.19 1.344-.117 2.552-1.662 1.945z" fill="#fff"/></svg>