<svg xmlns="http://www.w3.org/2000/svg" width="2000" height="501" viewBox="0 0 297.62 74.56" shape-rendering="geometricPrecision" text-rendering="geometricPrecision" image-rendering="optimizeQuality" fill-rule="evenodd" clip-rule="evenodd"><path d="M44.59 8.98L28.27 34.56h-5.2L4.97 8.85v25.71H0V0h9.05l18.48 27.86L44.81 0h10.1v34.56H44.59V8.98zM241.46 0h32.73c3.93 0 8.63.28 12.18 2.09 2.34 1.19 4 3.28 4.8 5.75.77 2.38.72 5.03-.23 7.35a9.048 9.048 0 01-2.21 3.22c-1.73 1.6-4.09 2.46-6.39 2.98 4.76 4.1 9.52 8.2 14.28 12.31l1 .86h-12.41l-.14-.1c-3.94-3.09-7.75-6.35-11.53-9.65-1.96-1.72-4.16-2.66-6.79-2.66h-15.09V17.9h18.89c5.28 0 8.61-2.77 8.61-5.72 0-2.68-2.35-6.61-8.61-6.61h-29.09V0zm-20.98 23.32h-25.35c-.74 0-1.63.04-2.28.44-.32.2-.59.48-.83.76-.36.43-.69.91-1.02 1.37h-.01v.01c-2.15 2.77-4.18 5.63-6.25 8.46l-.14.2h-6.71L203.45 0h12.5l25.51 34.56h-12.73l-8.25-11.24zm-24.1-4.7h20.57L206.68 4.68l-10.3 13.94zm-44.09-9.64l-16.32 25.58h-5.19L112.67 8.85v25.71h-4.97V0h9.05l18.48 27.86L152.51 0h10.1v34.56h-10.32V8.98zM86.46 0v34.56H76.14V0h10.32z" fill="#0f4d46"/><path d="M214.29 59.31c1.08 0 2.1.07 3.05.23.95.15 1.78.42 2.49.79.71.38 1.27.88 1.67 1.51.41.63.62 1.41.62 2.35 0 .93-.21 1.71-.62 2.33-.4.63-.96 1.13-1.67 1.5-.71.37-1.54.64-2.49.8-.95.16-1.97.24-3.05.24h-9.56v5.12h-4.14V59.31h13.7zm0 8.41c.6 0 1.16-.06 1.69-.18s1-.32 1.4-.6c.4-.29.71-.65.94-1.11.23-.45.34-1.01.34-1.66 0-.66-.11-1.21-.34-1.66-.23-.45-.54-.81-.94-1.1-.4-.28-.87-.48-1.4-.6-.53-.12-1.09-.18-1.69-.18h-9.56v7.09h9.56zm-22.92-8.41h1.71v7.43c0 1.08-.24 2.09-.71 3.04-.46.94-1.15 1.77-2.05 2.48-.91.71-2.01 1.26-3.33 1.67-1.31.41-2.8.61-4.47.61-1.69 0-3.19-.2-4.5-.61s-2.42-.96-3.32-1.67c-.91-.71-1.59-1.54-2.06-2.48a6.75 6.75 0 01-.7-3.04v-7.43h4.43v7.43c0 .89.13 1.73.37 2.52s.61 1.48 1.11 2.07c.5.59 1.14 1.06 1.91 1.4.77.34 1.69.51 2.76.51 1.24 0 2.4-.14 3.48-.41 1.08-.28 2.02-.68 2.81-1.23.8-.54 1.42-1.22 1.88-2.03.45-.82.68-1.76.68-2.83v-7.43zm-26.95 7.43c0 1.08-.32 2.09-.95 3.04-.64.94-1.51 1.77-2.61 2.48-1.11.71-2.39 1.26-3.87 1.67-1.47.41-3.05.61-4.73.61-1.68 0-3.25-.2-4.73-.61-1.48-.41-2.77-.96-3.88-1.67-1.1-.71-1.97-1.54-2.61-2.48-.63-.95-.95-1.96-.95-3.04 0-1.09.32-2.1.95-3.05.64-.94 1.51-1.77 2.61-2.48 1.11-.71 2.4-1.26 3.88-1.67 1.48-.41 3.05-.61 4.73-.61 1.68 0 3.26.2 4.73.61 1.48.41 2.76.96 3.87 1.67 1.1.71 1.97 1.54 2.61 2.48.63.95.95 1.96.95 3.05zm-12.16 6.5c1.07 0 2.07-.17 3.01-.51.93-.34 1.75-.81 2.46-1.4.7-.59 1.25-1.28 1.65-2.07.4-.79.6-1.63.6-2.52 0-.9-.2-1.74-.6-2.53-.4-.79-.95-1.48-1.65-2.07a8.248 8.248 0 00-2.46-1.4c-.94-.34-1.94-.51-3.01-.51-1.08 0-2.08.17-3.02.51-.93.34-1.75.81-2.45 1.4-.69.59-1.24 1.28-1.65 2.07a5.4 5.4 0 00-.61 2.53c0 .89.2 1.73.61 2.52s.96 1.48 1.65 2.07c.7.59 1.52 1.06 2.45 1.4.94.34 1.94.51 3.02.51zm-24.11-4.08c.14.12.32.29.57.51.24.21.51.44.81.7.3.25.62.52.95.81l1.01.86c.77.65 1.61 1.37 2.51 2.14h-4.84c-.62-.48-1.19-.94-1.73-1.38-.47-.38-.94-.76-1.42-1.17-.49-.4-.87-.73-1.15-1-.27-.24-.53-.48-.8-.71-.27-.24-.56-.44-.87-.63-.3-.18-.64-.32-1.02-.44-.37-.11-.8-.17-1.26-.17H114v5.5h-4.16V59.31h14.36c1.03 0 2 .06 2.91.19.91.12 1.71.36 2.39.71.68.35 1.22.83 1.61 1.44.4.6.6 1.38.6 2.33 0 .7-.11 1.3-.32 1.81-.22.51-.52.94-.9 1.3-.38.35-.84.64-1.38.85-.55.21-1.14.38-1.78.5.15.11.28.22.41.34l.41.38zm-3.95-1.92c.56 0 1.08-.05 1.56-.15.49-.1.9-.28 1.25-.54.35-.25.62-.59.82-1.02.2-.43.3-.96.3-1.61 0-.64-.1-1.17-.3-1.6-.2-.43-.47-.77-.82-1.03a3.22 3.22 0 00-1.25-.53c-.48-.1-1-.15-1.56-.15H114v6.63h10.2zm-27.13 1.98c0-.33-.12-.61-.35-.85-.24-.23-.52-.35-.85-.35h-3.6v-1.35h8.63v6.09c-1.23.37-2.55.69-3.97.96-.6.12-1.26.24-1.98.34-.71.11-1.46.2-2.25.28-.78.08-1.59.14-2.44.18-.84.04-1.7.05-2.57.02-1.68-.04-3.26-.26-4.74-.67-1.48-.41-2.77-.96-3.88-1.66-1.1-.71-1.97-1.52-2.61-2.45-.63-.93-.95-1.94-.95-3.02 0-1.09.32-2.09.95-3 .64-.91 1.51-1.7 2.61-2.39 1.11-.68 2.4-1.23 3.88-1.64 1.48-.42 3.06-.68 4.74-.78 1.62-.1 3.13-.07 4.51.07 1.39.14 2.59.31 3.61.53 1.19.24 2.26.53 3.23.88v2.39a24.51 24.51 0 00-5.13-1.95 20.503 20.503 0 00-4.03-.62c-.72-.04-1.45-.03-2.19.02-1.07.08-2.07.3-3.01.64-.93.35-1.75.81-2.46 1.38-.7.57-1.25 1.23-1.66 1.99-.41.75-.61 1.58-.61 2.48 0 .89.2 1.72.61 2.48.41.77.96 1.43 1.66 2 .71.57 1.53 1.03 2.46 1.38.94.35 1.94.56 3.01.64 1.28.09 2.48.07 3.61-.06s2.12-.3 2.98-.5c1-.24 1.93-.52 2.79-.85v-2.61z" fill="#d7b56d" fill-rule="nonzero"/></svg>