<svg width="154" height="99" fill="none" xmlns="http://www.w3.org/2000/svg"><path fill-rule="evenodd" clip-rule="evenodd" d="M7.498 55.757c3.46-.175 7.903-.504 7.878 3.547-.023 3.928-4.551 3.673-7.902 3.45l.024-6.997zM0 77.629l.013 1.434 7.455.038.027-9.425c3.877-.122 7.526.283 10.514-1.432 5.706-3.278 6.306-12.169 2.011-16.368-2.352-2.3-4.837-2.966-9.223-2.966L0 48.92v28.71zm50.602-15.422c6.922-1.658 9.095 9.804 2.169 11.206-7.07 1.432-9.483-9.453-2.17-11.206zm13.114 7.819c1.136-7.348-3.366-13.05-9.755-14.134-7.555-1.284-13.398 3.423-14.436 9.62-2.847 16.995 21.896 19.36 24.191 4.514zM42.254 42.994c3.056.152 5.099.474 5.099-3.578V3.542c0-3.777-1.678-3.538-5.071-3.501l-.028 42.953zm61.884-39.647l.001 33.34c0 5.08-.741 6.67 4.995 6.3L109.16.054c-3.295-.124-5.014-.349-5.022 3.292zM32.497 58.575l-.054-2.117-6.424.009-.016 22.603 6.745.028c.042-3.679-.009-7.354.01-11.022.024-4.551.867-5.325 5.322-5.588l.06-6.755c-4.013-.285-5.132 2.47-5.643 2.842z" fill="#E31E24"/><path fill-rule="evenodd" clip-rule="evenodd" d="M97.765 67.854c-9.863-.002-7.353-.655-9.368 2.035-4.276 5.714-14.02 2.996-14.159-5.708-.145-9.174 9.916-11.731 14.125-6.065.64.86.806 1.454 1.347 2.253l7.961.026c.279-3.171-3.892-7.664-5.597-8.905-10.505-7.647-25.482-.82-25.589 12.297-.068 8.39 6.037 14.742 13.659 15.765 8.934 1.198 16.174-4.65 17.621-11.698zm38.255.806c-.459-3.28 1.723-6.145 4.684-6.552 3.416-.47 6.012 1.928 6.403 4.797 1.06 7.765-10.075 8.981-11.087 1.756zm-6.584 10.447l6.369-.004.058-2.282c1.574 1.01 2.188 2.562 5.158 2.962 2.445.33 5.198-.192 7.027-1.195 3.251-1.78 5.75-5.406 5.94-10.313.201-5.182-2.219-9.112-5.289-10.965-2.82-1.702-6.853-2.216-10.087-.785-1.408.574-1.764 1.338-2.368 1.517l-.011-9.136-6.8.002.003 30.199z" fill="#000"/><path fill-rule="evenodd" clip-rule="evenodd" d="M117.907 69.05c-.525 2.77-3.251 5.085-6.713 4.364-2.864-.598-5.143-3.491-4.341-7.003 1.561-6.838 12.543-5.211 11.054 2.64zm.512 7.834l.084 2.224 6.337-.005.034-22.604-6.322-.049-.117 2.207c-1.443-1.713-2.456-2.663-5.325-2.932-17.578-1.647-17.808 25.54-.285 24.098 2.72-.224 4.442-1.166 5.594-2.939zM70.067 36.328c7.65-.01 6.34.085 8.39-12.016.415-2.45 2.985-16.333 2.789-17.562-7.394-.218-6.463.588-8.27 11.924-.455 2.856-.969 5.783-1.443 8.679-.48 2.94-1.161 6.035-1.466 8.975zm-10.509-.02c7.577.274 6.483-.395 8.41-12.108.483-2.933.95-5.721 1.449-8.691.445-2.655 1.236-6.205 1.412-8.765-7.634-.03-6.396.154-8.357 11.976-.964 5.81-2.2 11.883-2.914 17.588zm-10.486.016c7.566.022 6.415-.226 8.382-12.066.482-2.897.952-5.786 1.455-8.71.286-1.663 1.447-7.387 1.362-8.781-7.553-.487-6.534 1.104-8.297 11.857-.703 4.284-2.57 14.19-2.901 17.7zm42.002-.004c3.76.03 6.286.446 6.957-3.262.557-3.08 4.259-24.81 4.304-26.29-7.845-.519-6.503 1.396-8.349 11.957l-2.912 17.596zm-10.472.006c7.58.044 6.434-.328 8.376-12.072.96-5.808 2.106-11.657 2.891-17.49-3.734-.16-6.32-.31-6.95 3.308L82.02 27.481c-.451 2.713-1.218 6.142-1.418 8.845z" fill="#000"/><path d="M13.767 90.573c-.611 0-1.254.224-1.651.865h-.054c0-.288-.075-.63-.193-.79h-1.33v7.398h1.588v-2.605h.053c.322.385.922.502 1.49.502 1.577 0 2.252-1.163 2.252-2.765 0-1.462-.546-2.605-2.155-2.605zm-.59 1.164c.762 0 1.116.49 1.116 1.559 0 .95-.365 1.569-1.126 1.569-.804 0-1.051-.577-1.051-1.196v-.694c0-.704.397-1.238 1.062-1.238zm9.465-1.196c-.654 0-1.47.31-1.834 1.132h-.053c0-.48-.086-.8-.215-1.025h-1.35v5.21h1.618v-2.456c0-.96.44-1.44 1.92-1.484l-.086-1.377zm5.325.01c-1.951 0-2.756 1.218-2.756 2.723 0 1.516.676 2.658 2.756 2.658 2.112 0 2.734-1.387 2.734-2.669 0-1.355-.611-2.711-2.734-2.711zm-.01 1.154c.846 0 1.125.64 1.125 1.558 0 1.057-.429 1.548-1.126 1.548-.793 0-1.147-.544-1.147-1.537 0-.929.29-1.57 1.147-1.57zm8.038-1.057v-.498c0-.603.225-.762.75-.762.193 0 .45.022.772.063l.01-1.13a5.339 5.339 0 00-1.179-.14c-1.35 0-1.951.556-1.951 1.832v.635l-.847.181v.865h.847v4.164h1.598v-4.164h1.5v-1.046h-1.5zm6.697 1.036c.622 0 .89.395.912.939H41.77c.032-.609.386-.94.922-.94zm.043-1.121c-1.801 0-2.594 1.206-2.594 2.786 0 1.633.76 2.583 2.659 2.583 1.222 0 2.37-.405 2.37-1.633 0-.043-.012-.107-.022-.181H43.69c-.054.32-.333.662-.922.662-.805 0-1.051-.545-1.051-1.335h3.463c.032-.17.043-.33.043-.48 0-1.303-.74-2.402-2.488-2.402zm7.9-.011c-1.76 0-2.285.907-2.285 1.601 0 1.1.805 1.377 2.113 1.591.74.117 1.04.245 1.04.587 0 .256-.247.523-.826.523-.472 0-.933-.17-.976-.715h-1.458c-.01.085-.01.16-.01.224 0 1.25 1.393 1.57 2.444 1.57 1.64 0 2.402-.727 2.402-1.613 0-1.035-.644-1.398-2.316-1.686-.59-.097-.815-.182-.815-.492 0-.256.225-.48.708-.48.364 0 .697.15.75.566h1.458c.011-.085.022-.16.022-.235 0-1.089-1.255-1.441-2.252-1.441zm7.78 0c-1.758 0-2.284.907-2.284 1.601 0 1.1.804 1.377 2.112 1.591.74.117 1.04.245 1.04.587 0 .256-.246.523-.825.523-.472 0-.933-.17-.976-.715h-1.458c-.01.085-.01.16-.01.224 0 1.25 1.393 1.57 2.444 1.57 1.64 0 2.402-.727 2.402-1.613 0-1.035-.644-1.398-2.316-1.686-.59-.097-.815-.182-.815-.492 0-.256.225-.48.707-.48.365 0 .697.15.751.566h1.458c.01-.085.022-.16.022-.235 0-1.089-1.255-1.441-2.252-1.441zm5.754 5.306h1.598v-5.21H64.17v5.21zm-.064-6.662c0 .491.397.875.88.875.503 0 .9-.384.9-.875a.882.882 0 00-.9-.886.877.877 0 00-.88.886zm7.845 1.356c-1.951 0-2.755 1.217-2.755 2.722 0 1.516.675 2.658 2.755 2.658 2.113 0 2.734-1.387 2.734-2.669 0-1.355-.61-2.711-2.734-2.711zm-.01 1.153c.847 0 1.125.64 1.125 1.558 0 1.057-.428 1.548-1.125 1.548-.794 0-1.148-.544-1.148-1.537 0-.929.29-1.57 1.148-1.57zm9.206-1.132c-.471 0-1.2.139-1.661.854h-.054c0-.384-.086-.619-.215-.779h-1.361v5.21h1.63v-2.904c0-.566.268-1.196 1.093-1.196.633 0 .815.438.815 1.025v3.075h1.62v-3.224c0-1.175-.355-2.06-1.867-2.06zm9.937 1.88c0-1.058-.515-1.912-2.37-1.912-1.019 0-2.252.363-2.252 1.442 0 .063 0 .138.022.213h1.426c.096-.427.45-.534.772-.534.482 0 .815.214.815.811v.225a10.425 10.425 0 00-.847-.043c-1.255 0-2.584.31-2.584 1.698 0 1.078.664 1.6 1.801 1.6.6 0 1.308-.255 1.673-.843h.064c.01.395.075.588.171.748h1.309v-3.406zm-1.587 1.13v.257c0 .459-.29 1.004-1.115 1.004-.386 0-.719-.214-.719-.598 0-.47.408-.715 1.147-.715.215 0 .45.02.687.053zm4.96.801c0 1.1.312 1.56 1.416 1.56.236 0 .45-.022.761-.076v-1.131c-.493-.022-.59-.086-.59-.513v-5.946h-1.587v6.106zm13.703-3.81c-1.609 0-2.584.939-2.584 2.732 0 1.772.868 2.637 2.712 2.637 1.18 0 2.284-.523 2.284-1.75 0-.065-.011-.14-.021-.214h-1.469c-.065.608-.504.79-.869.79-.815 0-1.029-.555-1.029-1.495 0-.811.193-1.526 1.008-1.526.3 0 .761.16.804.768h1.48c.01-.075.021-.16.021-.235 0-1.1-.965-1.708-2.337-1.708zm10.343 1.878c0-1.057-.515-1.91-2.37-1.91-1.018 0-2.251.362-2.251 1.44 0 .064 0 .14.021.214h1.426c.097-.427.451-.534.772-.534.483 0 .815.214.815.811v.225a10.427 10.427 0 00-.847-.043c-1.255 0-2.584.31-2.584 1.698 0 1.078.665 1.6 1.801 1.6.601 0 1.308-.255 1.673-.843h.064c.011.395.075.588.172.748h1.308v-3.406zm-1.587 1.132v.256c0 .459-.289 1.004-1.115 1.004-.386 0-.718-.214-.718-.598 0-.47.407-.715 1.147-.715.214 0 .45.02.686.053zm8.049 2.348c1.694 0 2.241-1.27 2.241-2.69 0-1.612-.6-2.658-2.198-2.658-.654 0-1.244.224-1.673.811h-.064c.075-.245.118-.79.118-1.078v-2.039h-1.63v7.58h1.34c.118-.192.172-.47.172-.716h.053c.269.513.955.79 1.641.79zm-.515-4.227c.783 0 1.094.566 1.094 1.558 0 1.068-.386 1.58-1.115 1.58-.718 0-1.083-.533-1.083-1.238v-.512c0-.673.3-1.388 1.104-1.388zm6.044 2.68c0 1.1.311 1.558 1.416 1.558.236 0 .45-.021.761-.075v-1.131c-.493-.022-.59-.086-.59-.513v-5.946h-1.587v6.106zm7.62-2.701c.622 0 .89.395.912.939h-1.834c.032-.609.386-.94.922-.94zm.043-1.121c-1.801 0-2.595 1.206-2.595 2.786 0 1.633.762 2.583 2.659 2.583 1.223 0 2.37-.405 2.37-1.633 0-.043-.011-.107-.021-.181h-1.458c-.054.32-.333.662-.923.662-.804 0-1.05-.545-1.05-1.335h3.463a2.59 2.59 0 00.043-.48c0-1.303-.74-2.402-2.488-2.402z" fill="#000"/></svg>