<?xml version="1.0" encoding="utf-8"?><svg viewBox="0 0 40 40" xmlns="http://www.w3.org/2000/svg" xmlns:xlink="http://www.w3.org/1999/xlink"><style>:root>svg{display:none}:root>svg:target{display:block}</style><svg viewBox="0 0 40 40" id="agriculture" xmlns="http://www.w3.org/2000/svg"><path d="M6.667 15H15c0-1.834-1.5-3.334-3.333-3.334h-5c-.917 0-1.667.75-1.667 1.667S5.75 15 6.667 15z"/><path d="M36.666 23.433v-10.1c0-1.833-1.5-3.333-3.333-3.333H22.85l-1.767-1.767 2.35-2.35L22.25 4.7l-5.884 5.883 1.184 1.184 2.35-2.35 1.767 1.766V15c0 1.833-1.5 3.333-3.334 3.333h-3.4c-.367-.266-.75-.5-1.15-.716l-.666 1.483-.767-.35.667-1.5A8.17 8.17 0 0010 16.667c-.883 0-1.733.183-2.534.433l.567 1.517-.783.3-.583-1.55a8.2 8.2 0 00-4.05 3.85l1.483.666-.35.767-1.5-.667A8.17 8.17 0 001.667 25c0 .883.183 1.733.433 2.533l1.516-.566.3.783-1.55.583a8.2 8.2 0 003.85 4.05l.667-1.483.767.35-.667 1.5c.917.367 1.95.583 3.017.583.883 0 1.733-.183 2.533-.433l-.566-1.517.783-.3.583 1.55a8.2 8.2 0 004.05-3.85l-1.483-.666.35-.767 1.5.667c.166-.434.3-.9.4-1.367h8.6c-.034.283-.084.567-.084.85a5.84 5.84 0 005.834 5.833 5.84 5.84 0 005.833-5.833 5.774 5.774 0 00-1.666-4.067zM10 30c-2.767 0-5-2.233-5-5s2.233-5 5-5 5 2.233 5 5-2.233 5-5 5zm8.116-6.667c-.066-.3-.133-.583-.216-.866l-1.517.566-.3-.783 1.55-.583h.7A6.665 6.665 0 0025 15v-1.667h8.333v8.417c-.267-.033-.55-.083-.833-.083a5.774 5.774 0 00-4.067 1.666H18.116zM32.5 30a2.497 2.497 0 01-2.5-2.5c0-1.383 1.116-2.5 2.5-2.5 1.383 0 2.5 1.117 2.5 2.5S33.883 30 32.5 30z"/></svg><svg viewBox="0 0 16 16" id="arrow-down" xmlns="http://www.w3.org/2000/svg"><path fill-rule="evenodd" clip-rule="evenodd" d="M12.78 6.22a.75.75 0 010 1.06l-4.25 4.25a.75.75 0 01-1.06 0L3.22 7.28a.75.75 0 011.06-1.06L8 9.94l3.72-3.72a.75.75 0 011.06 0z"/></svg><svg viewBox="0 0 16 16" id="arrow-next" xmlns="http://www.w3.org/2000/svg"><path fill-rule="evenodd" clip-rule="evenodd" d="M6.22 3.22a.75.75 0 011.06 0l4.25 4.25a.75.75 0 010 1.06l-4.25 4.25a.75.75 0 01-1.06-1.06L9.94 8 6.22 4.28a.75.75 0 010-1.06z"/></svg><svg viewBox="0 0 16 16" id="arrow-prev" xmlns="http://www.w3.org/2000/svg"><path fill-rule="evenodd" clip-rule="evenodd" d="M9.78 12.78a.75.75 0 01-1.06 0L4.47 8.53a.75.75 0 010-1.06l4.25-4.25a.75.75 0 011.06 1.06L6.06 8l3.72 3.72a.75.75 0 010 1.06z"/></svg><svg viewBox="0 0 40 40" id="bus" xmlns="http://www.w3.org/2000/svg"><path d="M28.333 8.333H5a3.332 3.332 0 00-3.333 3.334v15H5c0 2.766 2.233 5 5 5s5-2.234 5-5h10c0 2.766 2.233 5 5 5s5-2.234 5-5h3.333v-8.334l-10-10zM25 11.667h1.666l5 5H25v-5zm-10 0h6.666v5H15v-5zm-10 0h6.666v5H5v-5zm5 17.083A2.084 2.084 0 1110 24.582 2.084 2.084 0 0110 28.75zm20 0A2.084 2.084 0 1130 24.582 2.084 2.084 0 0130 28.75zm5-5.417h-1.3a4.976 4.976 0 00-3.7-1.666c-1.467 0-2.784.65-3.7 1.666H13.7c-.917-1.016-2.217-1.666-3.7-1.666s-2.784.65-3.7 1.666H5V20h30v3.333z"/></svg><svg viewBox="0 0 22 22" id="close" xmlns="http://www.w3.org/2000/svg"><g clip-path="url(#fclip0)"><path d="M1.074 0a1.074 1.074 0 00-.76 1.834l19.852 19.852a1.074 1.074 0 101.52-1.52L1.834.316A1.071 1.071 0 001.074 0z"/><path d="M20.926 0a1.071 1.071 0 00-.76.315L.315 20.166a1.074 1.074 0 001.519 1.52L21.686 1.834A1.074 1.074 0 0020.926 0z"/></g><defs><clipPath id="fclip0"><path transform="matrix(1 0 0 -1 0 22)" d="M0 0h22v22H0z"/></clipPath></defs></svg><svg viewBox="0 0 22 5" id="dotted" xmlns="http://www.w3.org/2000/svg"><path d="M16.6 2.5a2.5 2.5 0 105 0 2.5 2.5 0 00-5 0zM8.2 2.5C8.2 3.88 9.364 5 10.8 5c1.436 0 2.6-1.12 2.6-2.5S12.236 0 10.8 0C9.364 0 8.2 1.12 8.2 2.5zM0 2.5a2.5 2.5 0 105 0 2.5 2.5 0 00-5 0z"/></svg><svg viewBox="0 0 24 24" id="download" xmlns="http://www.w3.org/2000/svg"><path d="M18 15v3H6v-3H4v3c0 1.1.9 2 2 2h12c1.1 0 2-.9 2-2v-3h-2zm-1-4l-1.41-1.41L13 12.17V4h-2v8.17L8.41 9.59 7 11l5 5 5-5z"/></svg><svg viewBox="0 0 40 40" id="drive" xmlns="http://www.w3.org/2000/svg"><path d="M31.533 8.35a2.49 2.49 0 00-2.366-1.683H10.833c-1.1 0-2.016.7-2.366 1.683L5 18.333v13.334c0 .916.75 1.666 1.667 1.666h1.666c.917 0 1.667-.75 1.667-1.666V30h20v1.667c0 .916.75 1.666 1.667 1.666h1.666c.917 0 1.667-.75 1.667-1.666V18.333L31.533 8.35zM11.417 10h17.15l1.733 5H9.683l1.734-5zm20.25 16.667H8.333V18.9l.2-.567h22.95l.184.567v7.767z"/><path d="M12.5 25a2.5 2.5 0 100-5 2.5 2.5 0 000 5zM27.5 25a2.5 2.5 0 100-5 2.5 2.5 0 000 5z"/></svg><svg viewBox="0 0 40 40" id="freeze" xmlns="http://www.w3.org/2000/svg"><path d="M37 18.85h-6.88l5.345-5.346-2.326-2.343-7.689 7.689h-3.3v-3.3l7.689-7.689-2.343-2.326-5.346 5.345V4h-3.3v6.88l-5.346-5.346-2.343 2.327 7.689 7.689v3.3h-3.3l-7.689-7.689-2.326 2.343 5.345 5.346H4v3.3h6.88l-5.346 5.346 2.327 2.343 7.689-7.689h3.3v3.3l-7.689 7.689 2.343 2.326 5.346-5.346V37h3.3v-6.88l5.346 5.345 2.343-2.326-7.689-7.689v-3.3h3.3l7.689 7.689 2.326-2.343-5.346-5.346H37v-3.3z"/></svg><svg viewBox="0 0 31 21" id="menu" xmlns="http://www.w3.org/2000/svg"><path d="M28.371 16.69H1.67a1.669 1.669 0 000 3.338H28.37a1.669 1.669 0 100-3.338zM28.371 8.344H1.67a1.669 1.669 0 000 3.338H28.37a1.669 1.669 0 100-3.338zM28.371 0H1.67a1.669 1.669 0 100 3.338H28.37a1.669 1.669 0 100-3.338z"/></svg><svg viewBox="0 0 40 40" id="miscellaneous" xmlns="http://www.w3.org/2000/svg"><path d="M23.617 22.85l2.333-4.033a.589.589 0 00-.133-.75l-2.467-1.934c.05-.366.083-.75.083-1.133s-.033-.767-.083-1.15l2.467-1.933a.589.589 0 00.133-.75l-2.333-4.034a.59.59 0 00-.717-.25L20 8.05a8.57 8.57 0 00-1.966-1.15L17.6 3.817a.606.606 0 00-.583-.484H12.35a.605.605 0 00-.583.5l-.433 3.084c-.7.3-1.367.683-1.967 1.15L6.467 6.9a.59.59 0 00-.717.25l-2.333 4.033a.589.589 0 00.133.75l2.467 1.934c-.05.366-.083.75-.083 1.133s.033.767.083 1.15L3.55 18.083a.589.589 0 00-.133.75l2.333 4.034c.15.25.45.35.717.25l2.9-1.167c.6.467 1.25.85 1.966 1.15l.434 3.083c.05.267.3.484.583.484h4.667a.605.605 0 00.583-.5l.433-3.084c.7-.3 1.367-.683 1.967-1.15l2.9 1.167c.267.1.567 0 .717-.25zm-8.934-4.517A3.343 3.343 0 0111.35 15c0-1.833 1.5-3.333 3.334-3.333 1.833 0 3.333 1.5 3.333 3.333 0 1.833-1.5 3.333-3.333 3.333zM36.534 31.117l-1.6-1.234c.033-.233.066-.483.066-.733s-.016-.5-.066-.733l1.583-1.234a.381.381 0 00.083-.483l-1.5-2.583c-.083-.167-.283-.217-.466-.167l-1.85.75c-.384-.3-.8-.55-1.267-.733L31.234 22a.36.36 0 00-.35-.333H27.9c-.183 0-.35.133-.366.316l-.284 1.967c-.45.2-.883.433-1.266.733l-1.85-.75a.383.383 0 00-.467.167l-1.5 2.583c-.083.167-.067.367.083.484l1.584 1.233c-.034.233-.05.483-.05.733s.016.5.05.734L22.25 31.1a.38.38 0 00-.083.483l1.5 2.584c.083.166.283.216.467.166l1.85-.75c.383.3.8.55 1.266.734l.284 1.966a.375.375 0 00.366.317h2.984c.183 0 .35-.133.366-.317l.284-1.966c.45-.2.883-.434 1.25-.734l1.866.75c.167.067.367 0 .467-.166l1.5-2.584c.1-.15.05-.35-.083-.466zm-7.15.266c-1.234 0-2.25-1-2.25-2.25s1-2.25 2.25-2.25 2.25 1 2.25 2.25-1.017 2.25-2.25 2.25z"/></svg><svg viewBox="0 0 40 40" id="oil-can" xmlns="http://www.w3.org/2000/svg"><g clip-path="url(#mclip0_10_214)"><path d="M37.174 27.277c-.189-.076-.72-.405-.87-.749-.36-.823-.59-1.463.43-3.65.477-1.025.951-2.049 1.053-2.275l.184-.411.277.658c.153.362.608 1.351 1.012 2.2.898 1.885.805 2.851.616 3.251-.472 1.002-1.627 1.41-2.702.976zm-29.82-.263l-.018-5.767c-.079-.293-.15-.3-3.57-1.468-.353-.12-3.054-1.141-3.144-1.202-.517-.35-.621-.534-.621-.934 0-.37 1.33-3.605 1.74-4.236.172-.263.424-.5.795-.37.337.117 6.044 2.145 6.674 2.381.219.082.337.518.365.803l.05.517h3.784v-.987l-1.176-.082c-1.33-.093-1.867-.424-1.867-1.149 0-.246.167-.596.38-.797.367-.344.513-.357 3.92-.357 3.486 0 3.544.005 3.897.38.196.21.357.568.357.797 0 .702-.55 1.034-1.867 1.126l-1.176.082v.987l1.925.046 1.926.047.919.84.919.84c.187-.043 14.043-3.568 14.188-3.604.02.004.933.838 1.55 1.453.819.813 1.29 1.516.7 2.105-.562.562-1.226.427-2.15-.437l-.82-.767-1.428.397-1.428.398c-.204.188-7.587 8.563-7.998 8.964h-8.023l-8.803-.006zm18.217-4.86l2.652-3.044-3.791 1-3.396.823-2.233-1.814-9.282-.017-.01 5.631 7.006-.016h6.82l2.234-2.562zM7.268 18.178c.038-.159.028-.5-.022-.76-.082-.43-.245-.53-1.817-1.109-.95-.35-1.848-.637-1.996-.638-.287-.002-.737.842-.601 1.173.105.256 3.713 1.591 4.181 1.613.103.005.218-.12.255-.28z"/></g><defs><clipPath id="mclip0_10_214"><path d="M0 0h40v40H0z"/></clipPath></defs></svg><svg viewBox="0 0 40 37" id="settings" xmlns="http://www.w3.org/2000/svg"><path d="M21.33 12.087V9.243l-3.668-.815a7.3 7.3 0 00-.47-1.126l2.02-3.173L17.2 2.118l-3.173 2.02a7.305 7.305 0 00-1.126-.471L12.087 0H9.243l-.815 3.667a7.3 7.3 0 00-1.126.47L4.13 2.118 2.118 4.13l2.019 3.174c-.186.36-.345.735-.47 1.126L0 9.243v2.844l3.667.815a7.3 7.3 0 00.47 1.125l-2.019 3.174 2.012 2.01 3.173-2.018c.36.185.735.345 1.126.47l.814 3.667h2.844l.815-3.668a7.3 7.3 0 001.126-.47l3.173 2.02 2.011-2.012-2.02-3.173c.187-.36.346-.735.471-1.126l3.667-.814zM10.665 14.22a3.555 3.555 0 110-7.11 3.555 3.555 0 010 7.11zm15.25 18.534l.896-2.189-2.567-1.783c.027-.34.023-.68-.007-1.014l2.555-1.807-.915-2.182-3.079.555a6.092 6.092 0 00-.718-.717l.529-3.08-2.19-.896-1.782 2.567a6.089 6.089 0 00-1.015.007l-1.806-2.555-2.182.915.555 3.079a6.108 6.108 0 00-.717.718l-3.08-.529-.896 2.19 2.566 1.782c-.027.34-.022.68.007 1.015l-2.554 1.806.914 2.182 3.08-.555c.218.256.456.498.717.717l-.528 3.08 2.189.896 1.783-2.566c.34.027.68.022 1.014-.007l1.807 2.554 2.182-.914-.555-3.08c.256-.217.497-.456.717-.718l3.08.529zm-8.883-1.72a2.957 2.957 0 112.242-5.473 2.957 2.957 0 01-2.242 5.474zM40 10.093l-.754-2.326-3.215.307a6.28 6.28 0 00-.683-.796l.81-3.13-2.179-1.111-2.06 2.492a6.236 6.236 0 00-1.044-.086l-1.64-2.782-2.325.754.306 3.215c-.286.206-.55.436-.796.683l-3.13-.81-1.11 2.178 2.492 2.06a6.233 6.233 0 00-.086 1.045l-2.782 1.639.754 2.325 3.215-.306c.206.287.436.55.683.796l-.81 3.13 2.178 1.11 2.06-2.492c.343.057.692.088 1.045.086l1.64 2.783 2.325-.755-.307-3.214c.287-.206.551-.437.796-.684l3.13.81 1.111-2.178-2.492-2.06c.056-.343.087-.692.086-1.045L40 10.092zm-8.155 4.572a3.056 3.056 0 11-1.886-5.813 3.056 3.056 0 011.886 5.813z"/></svg><svg viewBox="0 0 40 40" id="settings-suggest" xmlns="http://www.w3.org/2000/svg"><path d="M16.666 21.667c.917 0 1.667.75 1.667 1.666 0 .917-.75 1.667-1.666 1.667C15.75 25 15 24.25 15 23.333c0-.916.75-1.666 1.666-1.666zm0-3.334c-2.766 0-5 2.234-5 5 0 2.767 2.234 5 5 5 2.767 0 5-2.233 5-5 0-2.766-2.233-5-5-5zM30.834 15l1.817-4.017 4.017-1.816L32.65 7.35l-1.817-4.017-1.816 4.017L25 9.167l4.017 1.816L30.832 15zm4.634 6.2l-1.3-2.867-1.3 2.867L30 22.5l2.867 1.3 1.3 2.867 1.3-2.867 2.866-1.3-2.866-1.3zm-8.384 2.133c0-.2 0-.416-.016-.616l3.233-2.45-4.167-7.217-3.733 1.567c-.333-.217-.7-.434-1.067-.617l-.5-4H12.5l-.5 4.017c-.367.183-.717.4-1.067.616L7.2 13.05l-4.167 7.217 3.234 2.45c-.017.2-.017.416-.017.616s0 .417.017.617L3.033 26.4 7.2 33.617l3.733-1.567c.334.217.7.433 1.067.617l.5 4h8.333l.5-4.017a9.807 9.807 0 001.067-.617l3.733 1.567 4.167-7.217-3.233-2.45c.016-.183.016-.4.016-.6zM24.717 29.4l-2.884-1.217a7.011 7.011 0 01-3.55 2.05l-.4 3.1H15.45l-.383-3.1a7.011 7.011 0 01-3.55-2.05L8.633 29.4l-1.216-2.117L9.9 25.4c-.2-.65-.3-1.333-.3-2.05 0-.717.1-1.4.3-2.05l-2.483-1.883L8.633 17.3l2.884 1.217a7.011 7.011 0 013.55-2.05l.383-3.134h2.45l.383 3.1a7.01 7.01 0 013.55 2.05l2.884-1.216 1.216 2.116-2.483 1.884c.2.65.3 1.333.3 2.05 0 .716-.1 1.4-.3 2.05l2.483 1.883-1.216 2.15z"/></svg><svg viewBox="0 0 40 40" id="steering-wheel" xmlns="http://www.w3.org/2000/svg"><path fill-rule="evenodd" clip-rule="evenodd" d="M20 4c8.836 0 16 7.164 16 16s-7.164 16-16 16S4 28.836 4 20 11.164 4 20 4zm-.07 16.042a.827.827 0 110 1.656.827.827 0 110-1.656zm.008-2.167a2.987 2.987 0 110 5.974 2.987 2.987 0 010-5.974zM7.848 15.607c1.159-3.206 3.52-5.912 6.484-7.294 4.07-1.899 9.013-2.019 13.2 1.08 2.47 1.826 3.37 3.323 4.602 5.977.933 2.351.167 3.117-2.83 1.797-6.196-3.065-12.459-2.927-18.782 0-2.333 1.523-3.643.252-2.674-1.56zm15.917 16.791c4.328-1.362 6.854-4.117 8.403-7.63 1.008-2.716-2.15-3.638-3.26-1.849-.664 1.318-1.456 2.448-2.487 3.326-1.615 1.372-3.953 1.622-4.318 4.208-.19 1.344.117 2.552 1.662 1.945zm-7.459 0c-4.328-1.362-6.854-4.117-8.403-7.63-1.008-2.716 2.15-3.638 3.26-1.849.664 1.318 1.456 2.448 2.487 3.326 1.615 1.372 3.953 1.622 4.318 4.208.19 1.344-.117 2.552-1.662 1.945z"/></svg></svg>